<mxfile host="app.diagrams.net" modified="2023-11-06T06:52:17.435Z" agent="Mozilla/5.0 (Windows NT 10.0; Win64; x64) AppleWebKit/537.36 (KHTML, like Gecko) Chrome/119.0.0.0 Safari/537.36 Edg/119.0.0.0" etag="lENomtihWOuvV69jng8a" version="22.0.8" type="github">
  <diagram id="C5RBs43oDa-KdzZeNtuy" name="Page-1">
    <mxGraphModel dx="1425" dy="795" grid="1" gridSize="10" guides="1" tooltips="1" connect="1" arrows="1" fold="1" page="1" pageScale="1" pageWidth="827" pageHeight="1169" math="0" shadow="0">
      <root>
        <mxCell id="WIyWlLk6GJQsqaUBKTNV-0" />
        <mxCell id="WIyWlLk6GJQsqaUBKTNV-1" parent="WIyWlLk6GJQsqaUBKTNV-0" />
        <mxCell id="OKXSKGiEREyGPu1v0xaB-46" value="" style="edgeStyle=orthogonalEdgeStyle;rounded=0;orthogonalLoop=1;jettySize=auto;html=1;" edge="1" parent="WIyWlLk6GJQsqaUBKTNV-1" source="WIyWlLk6GJQsqaUBKTNV-3" target="OKXSKGiEREyGPu1v0xaB-12">
          <mxGeometry relative="1" as="geometry" />
        </mxCell>
        <mxCell id="WIyWlLk6GJQsqaUBKTNV-3" value="干黄管上电&lt;br&gt;（BLE 从机）" style="rounded=1;whiteSpace=wrap;html=1;fontSize=12;glass=0;strokeWidth=1;shadow=0;" parent="WIyWlLk6GJQsqaUBKTNV-1" vertex="1">
          <mxGeometry x="160" y="80" width="120" height="40" as="geometry" />
        </mxCell>
        <mxCell id="OKXSKGiEREyGPu1v0xaB-9" value="Yes" style="rounded=0;html=1;jettySize=auto;orthogonalLoop=1;fontSize=11;endArrow=block;endFill=0;endSize=8;strokeWidth=1;shadow=0;labelBackgroundColor=none;edgeStyle=orthogonalEdgeStyle;" edge="1" parent="WIyWlLk6GJQsqaUBKTNV-1">
          <mxGeometry y="20" relative="1" as="geometry">
            <mxPoint as="offset" />
            <mxPoint x="583.97" y="790" as="sourcePoint" />
            <mxPoint x="574.004482758621" y="870.0275862068968" as="targetPoint" />
          </mxGeometry>
        </mxCell>
        <mxCell id="OKXSKGiEREyGPu1v0xaB-10" value="No" style="edgeStyle=orthogonalEdgeStyle;rounded=0;html=1;jettySize=auto;orthogonalLoop=1;fontSize=11;endArrow=block;endFill=0;endSize=8;strokeWidth=1;shadow=0;labelBackgroundColor=none;" edge="1" parent="WIyWlLk6GJQsqaUBKTNV-1">
          <mxGeometry y="10" relative="1" as="geometry">
            <mxPoint as="offset" />
            <mxPoint x="753.97" y="770" as="sourcePoint" />
            <mxPoint x="634.0044827586207" y="700" as="targetPoint" />
            <Array as="points">
              <mxPoint x="753.97" y="750" />
              <mxPoint x="633.97" y="750" />
            </Array>
          </mxGeometry>
        </mxCell>
        <mxCell id="OKXSKGiEREyGPu1v0xaB-29" value="" style="edgeStyle=orthogonalEdgeStyle;rounded=0;orthogonalLoop=1;jettySize=auto;html=1;" edge="1" parent="WIyWlLk6GJQsqaUBKTNV-1" source="OKXSKGiEREyGPu1v0xaB-12" target="OKXSKGiEREyGPu1v0xaB-28">
          <mxGeometry relative="1" as="geometry" />
        </mxCell>
        <mxCell id="OKXSKGiEREyGPu1v0xaB-12" value="广播RSSI值/MAC地址" style="rounded=1;whiteSpace=wrap;html=1;fontSize=12;glass=0;strokeWidth=1;shadow=0;" vertex="1" parent="WIyWlLk6GJQsqaUBKTNV-1">
          <mxGeometry x="160" y="170" width="120" height="40" as="geometry" />
        </mxCell>
        <mxCell id="OKXSKGiEREyGPu1v0xaB-13" value="No" style="rounded=0;html=1;jettySize=auto;orthogonalLoop=1;fontSize=11;endArrow=block;endFill=0;endSize=8;strokeWidth=1;shadow=0;labelBackgroundColor=none;edgeStyle=orthogonalEdgeStyle;" edge="1" parent="WIyWlLk6GJQsqaUBKTNV-1" source="OKXSKGiEREyGPu1v0xaB-15" target="OKXSKGiEREyGPu1v0xaB-16">
          <mxGeometry x="0.3333" y="20" relative="1" as="geometry">
            <mxPoint as="offset" />
          </mxGeometry>
        </mxCell>
        <mxCell id="OKXSKGiEREyGPu1v0xaB-14" value="Yes" style="edgeStyle=orthogonalEdgeStyle;rounded=0;html=1;jettySize=auto;orthogonalLoop=1;fontSize=11;endArrow=block;endFill=0;endSize=8;strokeWidth=1;shadow=0;labelBackgroundColor=none;" edge="1" parent="WIyWlLk6GJQsqaUBKTNV-1" source="OKXSKGiEREyGPu1v0xaB-15" target="OKXSKGiEREyGPu1v0xaB-17">
          <mxGeometry y="10" relative="1" as="geometry">
            <mxPoint as="offset" />
          </mxGeometry>
        </mxCell>
        <mxCell id="OKXSKGiEREyGPu1v0xaB-15" value="Bulb&lt;br&gt;burned out?" style="rhombus;whiteSpace=wrap;html=1;shadow=0;fontFamily=Helvetica;fontSize=12;align=center;strokeWidth=1;spacing=6;spacingTop=-4;" vertex="1" parent="WIyWlLk6GJQsqaUBKTNV-1">
          <mxGeometry x="414" y="670" width="100" height="80" as="geometry" />
        </mxCell>
        <mxCell id="OKXSKGiEREyGPu1v0xaB-16" value="Repair Lamp" style="rounded=1;whiteSpace=wrap;html=1;fontSize=12;glass=0;strokeWidth=1;shadow=0;" vertex="1" parent="WIyWlLk6GJQsqaUBKTNV-1">
          <mxGeometry x="414" y="770" width="120" height="40" as="geometry" />
        </mxCell>
        <mxCell id="OKXSKGiEREyGPu1v0xaB-17" value="Replace Bulb" style="rounded=1;whiteSpace=wrap;html=1;fontSize=12;glass=0;strokeWidth=1;shadow=0;" vertex="1" parent="WIyWlLk6GJQsqaUBKTNV-1">
          <mxGeometry x="574" y="650" width="120" height="40" as="geometry" />
        </mxCell>
        <mxCell id="OKXSKGiEREyGPu1v0xaB-18" value="&lt;h1 style=&quot;font-size: 18px;&quot;&gt;&lt;font style=&quot;font-weight: normal; font-size: 18px;&quot; color=&quot;#ffffff&quot;&gt;骑行前&lt;/font&gt;&lt;/h1&gt;" style="text;html=1;fillColor=#1ba1e2;spacing=5;spacingTop=-20;whiteSpace=wrap;overflow=hidden;rounded=0;strokeColor=#006EAF;fontColor=#ffffff;align=center;verticalAlign=top;fontSize=18;" vertex="1" parent="WIyWlLk6GJQsqaUBKTNV-1">
          <mxGeometry x="30" y="80" width="80" height="30" as="geometry" />
        </mxCell>
        <mxCell id="OKXSKGiEREyGPu1v0xaB-22" value="" style="endArrow=none;dashed=1;html=1;rounded=0;" edge="1" parent="WIyWlLk6GJQsqaUBKTNV-1">
          <mxGeometry width="50" height="50" relative="1" as="geometry">
            <mxPoint x="360" y="660" as="sourcePoint" />
            <mxPoint x="360" y="40" as="targetPoint" />
          </mxGeometry>
        </mxCell>
        <mxCell id="OKXSKGiEREyGPu1v0xaB-25" value="" style="edgeStyle=orthogonalEdgeStyle;rounded=0;orthogonalLoop=1;jettySize=auto;html=1;" edge="1" parent="WIyWlLk6GJQsqaUBKTNV-1" source="OKXSKGiEREyGPu1v0xaB-23" target="OKXSKGiEREyGPu1v0xaB-24">
          <mxGeometry relative="1" as="geometry" />
        </mxCell>
        <mxCell id="OKXSKGiEREyGPu1v0xaB-23" value="BLE 主机" style="rounded=1;whiteSpace=wrap;html=1;fontSize=12;glass=0;strokeWidth=1;shadow=0;" vertex="1" parent="WIyWlLk6GJQsqaUBKTNV-1">
          <mxGeometry x="480" y="80" width="120" height="40" as="geometry" />
        </mxCell>
        <mxCell id="OKXSKGiEREyGPu1v0xaB-27" value="" style="edgeStyle=orthogonalEdgeStyle;rounded=0;orthogonalLoop=1;jettySize=auto;html=1;" edge="1" parent="WIyWlLk6GJQsqaUBKTNV-1" source="OKXSKGiEREyGPu1v0xaB-24" target="OKXSKGiEREyGPu1v0xaB-26">
          <mxGeometry relative="1" as="geometry" />
        </mxCell>
        <mxCell id="OKXSKGiEREyGPu1v0xaB-24" value="扫描信号强度最大的从设备，进行连接" style="whiteSpace=wrap;html=1;rounded=1;glass=0;strokeWidth=1;shadow=0;" vertex="1" parent="WIyWlLk6GJQsqaUBKTNV-1">
          <mxGeometry x="480" y="150" width="120" height="50" as="geometry" />
        </mxCell>
        <mxCell id="OKXSKGiEREyGPu1v0xaB-26" value="发起鉴权请求" style="whiteSpace=wrap;html=1;rounded=1;glass=0;strokeWidth=1;shadow=0;" vertex="1" parent="WIyWlLk6GJQsqaUBKTNV-1">
          <mxGeometry x="480" y="230" width="120" height="40" as="geometry" />
        </mxCell>
        <mxCell id="OKXSKGiEREyGPu1v0xaB-28" value="鉴权成功" style="whiteSpace=wrap;html=1;rounded=1;glass=0;strokeWidth=1;shadow=0;" vertex="1" parent="WIyWlLk6GJQsqaUBKTNV-1">
          <mxGeometry x="160" y="270" width="120" height="60" as="geometry" />
        </mxCell>
        <mxCell id="OKXSKGiEREyGPu1v0xaB-39" value="" style="endArrow=classic;html=1;rounded=0;exitX=0;exitY=0.75;exitDx=0;exitDy=0;dashed=1;dashPattern=1 4;fillColor=#f5f5f5;gradientColor=#b3b3b3;strokeColor=#666666;" edge="1" parent="WIyWlLk6GJQsqaUBKTNV-1">
          <mxGeometry width="50" height="50" relative="1" as="geometry">
            <mxPoint x="480" y="270" as="sourcePoint" />
            <mxPoint x="290" y="310" as="targetPoint" />
          </mxGeometry>
        </mxCell>
        <mxCell id="OKXSKGiEREyGPu1v0xaB-40" value="&lt;h1 style=&quot;font-size: 18px;&quot;&gt;&lt;font style=&quot;font-weight: normal; font-size: 18px;&quot; color=&quot;#ffffff&quot;&gt;骑行中&lt;/font&gt;&lt;/h1&gt;" style="text;html=1;fillColor=#1ba1e2;spacing=5;spacingTop=-20;whiteSpace=wrap;overflow=hidden;rounded=0;strokeColor=#006EAF;fontColor=#ffffff;align=center;verticalAlign=top;fontSize=18;" vertex="1" parent="WIyWlLk6GJQsqaUBKTNV-1">
          <mxGeometry x="30" y="380" width="80" height="30" as="geometry" />
        </mxCell>
        <mxCell id="OKXSKGiEREyGPu1v0xaB-41" value="等待请求佩戴状态信息" style="rounded=1;whiteSpace=wrap;html=1;fontSize=12;glass=0;strokeWidth=1;shadow=0;" vertex="1" parent="WIyWlLk6GJQsqaUBKTNV-1">
          <mxGeometry x="160" y="372.5" width="110" height="45" as="geometry" />
        </mxCell>
        <mxCell id="OKXSKGiEREyGPu1v0xaB-42" value="&lt;h1 style=&quot;font-size: 18px;&quot;&gt;&lt;font style=&quot;font-weight: normal; font-size: 18px;&quot; color=&quot;#ffffff&quot;&gt;骑行后&lt;/font&gt;&lt;/h1&gt;" style="text;html=1;fillColor=#1ba1e2;spacing=5;spacingTop=-20;whiteSpace=wrap;overflow=hidden;rounded=0;strokeColor=#006EAF;fontColor=#ffffff;align=center;verticalAlign=top;fontSize=18;" vertex="1" parent="WIyWlLk6GJQsqaUBKTNV-1">
          <mxGeometry x="30" y="500" width="80" height="30" as="geometry" />
        </mxCell>
        <mxCell id="OKXSKGiEREyGPu1v0xaB-45" value="" style="edgeStyle=orthogonalEdgeStyle;rounded=0;orthogonalLoop=1;jettySize=auto;html=1;" edge="1" parent="WIyWlLk6GJQsqaUBKTNV-1" source="OKXSKGiEREyGPu1v0xaB-43" target="OKXSKGiEREyGPu1v0xaB-44">
          <mxGeometry relative="1" as="geometry" />
        </mxCell>
        <mxCell id="OKXSKGiEREyGPu1v0xaB-43" value="干黄管下电" style="rounded=1;whiteSpace=wrap;html=1;fontSize=12;glass=0;strokeWidth=1;shadow=0;" vertex="1" parent="WIyWlLk6GJQsqaUBKTNV-1">
          <mxGeometry x="160" y="490" width="120" height="50" as="geometry" />
        </mxCell>
        <mxCell id="OKXSKGiEREyGPu1v0xaB-44" value="BLE 进入低功耗，设备待机模式" style="whiteSpace=wrap;html=1;rounded=1;glass=0;strokeWidth=1;shadow=0;" vertex="1" parent="WIyWlLk6GJQsqaUBKTNV-1">
          <mxGeometry x="160" y="585" width="120" height="60" as="geometry" />
        </mxCell>
        <mxCell id="OKXSKGiEREyGPu1v0xaB-47" value="发起佩戴检测请求" style="whiteSpace=wrap;html=1;rounded=1;glass=0;strokeWidth=1;shadow=0;" vertex="1" parent="WIyWlLk6GJQsqaUBKTNV-1">
          <mxGeometry x="480" y="320" width="120" height="40" as="geometry" />
        </mxCell>
        <mxCell id="OKXSKGiEREyGPu1v0xaB-48" value="发起骑行结束请求" style="whiteSpace=wrap;html=1;rounded=1;glass=0;strokeWidth=1;shadow=0;" vertex="1" parent="WIyWlLk6GJQsqaUBKTNV-1">
          <mxGeometry x="480" y="440" width="120" height="40" as="geometry" />
        </mxCell>
        <mxCell id="OKXSKGiEREyGPu1v0xaB-49" value="" style="endArrow=classic;html=1;rounded=0;exitX=0;exitY=0.75;exitDx=0;exitDy=0;dashed=1;dashPattern=1 4;fillColor=#f5f5f5;gradientColor=#b3b3b3;strokeColor=#666666;" edge="1" parent="WIyWlLk6GJQsqaUBKTNV-1">
          <mxGeometry width="50" height="50" relative="1" as="geometry">
            <mxPoint x="480" y="360" as="sourcePoint" />
            <mxPoint x="290" y="400" as="targetPoint" />
          </mxGeometry>
        </mxCell>
        <mxCell id="OKXSKGiEREyGPu1v0xaB-50" value="" style="endArrow=classic;html=1;rounded=0;exitX=0;exitY=0.75;exitDx=0;exitDy=0;dashed=1;dashPattern=1 4;fillColor=#f5f5f5;gradientColor=#b3b3b3;strokeColor=#666666;" edge="1" parent="WIyWlLk6GJQsqaUBKTNV-1">
          <mxGeometry width="50" height="50" relative="1" as="geometry">
            <mxPoint x="490" y="480" as="sourcePoint" />
            <mxPoint x="300" y="520" as="targetPoint" />
          </mxGeometry>
        </mxCell>
      </root>
    </mxGraphModel>
  </diagram>
</mxfile>
